<?xml version="1.0" encoding="utf-8"?>
<!-- Generator: Adobe Illustrator 28.4.1, SVG Export Plug-In . SVG Version: 6.00 Build 0)  -->
<svg version="1.1" id="Camada_1" xmlns="http://www.w3.org/2000/svg" xmlns:xlink="http://www.w3.org/1999/xlink" x="0px" y="0px"
	 viewBox="0 0 800 800" style="enable-background:new 0 0 800 800;" xml:space="preserve">
<style type="text/css">
	.st0{fill:#EBFBFF;}
</style>
<g>
	<path class="st0" d="M372.1,173.6c-62.5,0-113.2,50.6-113.2,113.2c0,0.9,0,2,0,2.9c0.4,13.1-8.5,24.8-21.2,28.1
		c-45.4,11.8-72.4,58.3-60.6,103.7c9.8,37.2,43.3,63.3,81.8,63.4h28.3c15.5,0,28.3,12.7,28.3,28.3c0,15.5-12.7,28.3-28.3,28.3h-28.3
		c-78.1,0-141.4-63.3-141.4-141.4c0-56.5,33.7-107.7,85.6-130c9.4-93.3,92.5-161.4,185.7-152c54.5,5.3,103,36.8,130.1,84.1
		c93.6,3.4,166.8,82.1,163.4,175.8c-3.4,91.1-78,163.3-169,163.5c-15.5,0-28.3-12.7-28.3-28.3s12.7-28.3,28.3-28.3
		c62.5-0.1,113.1-50.7,112.9-113.2s-50.7-113.1-113.2-112.9c-3,0-6.1,0.1-8.9,0.4c-12.1,0.9-23.5-5.8-28.3-16.9
		C458.1,200.4,417.2,173.6,372.1,173.6z M400.5,343.4c15.5,0,28.3,12.7,28.3,28.3v214.6l8.3-8.3c11.2-10.9,29.1-10.5,40,0.8
		c10.5,10.9,10.5,28.3,0,39.3l-56.7,56.3c-11.1,11.1-29,11.1-40,0l-56.5-56.5c-11.2-10.9-11.4-28.7-0.8-40
		c10.9-11.3,28.7-11.4,40-0.8c0.3,0.3,0.5,0.5,0.8,0.8l8.3,8.3V371.6C372.1,356.1,384.7,343.4,400.5,343.4L400.5,343.4z"/>
</g>
</svg>
