<?xml version="1.0" encoding="utf-8"?>
<!-- Generator: Adobe Illustrator 28.4.1, SVG Export Plug-In . SVG Version: 6.00 Build 0)  -->
<svg version="1.1" id="Camada_1" xmlns="http://www.w3.org/2000/svg" xmlns:xlink="http://www.w3.org/1999/xlink" x="0px" y="0px"
	 viewBox="0 0 800 800" style="enable-background:new 0 0 800 800;" xml:space="preserve">
<style type="text/css">
	.st0{fill-rule:evenodd;clip-rule:evenodd;fill:#EBFBFF;}
</style>
<path class="st0" d="M83.6,95.3c-32.3,0-58.6,26.3-58.6,58.6v398.5c0,32.3,26.3,58.6,58.6,58.6h175.8c42,0,69.1,9.6,84.8,21
	c14.9,10.8,20.7,23.9,20.7,37.6c0,19.4,15.7,35.2,35.2,35.2c19.4,0,35.2-15.7,35.2-35.2c0-13.7,5.8-26.8,20.7-37.6
	c15.7-11.4,42.8-21,84.8-21h175.8c32.3,0,58.6-26.3,58.6-58.6V153.9c0-32.3-26.3-58.6-58.6-58.6H540.6c-54.1,0-98.7,16.6-130,46.9
	c-3.8,3.8-7.4,7.5-10.7,11.5c-3.4-4-6.9-7.9-10.7-11.5c-31.2-30.3-75.9-46.9-130-46.9H83.6z M435.2,562.5
	c28.6-14.5,64.3-21.9,105.5-21.9h164.1v-375H540.6c-39.7,0-65.4,11.9-81,27.1c-15.7,15.2-24.5,36.9-24.5,62.8V562.5L435.2,562.5z
	 M364.8,562.5V255.5c0-25.9-8.8-47.6-24.5-62.8c-15.7-15.2-41.3-27.1-81-27.1H95.3v375h164.1C300.5,540.6,336.2,548.1,364.8,562.5z"
	/>
</svg>
