<?xml version="1.0" encoding="utf-8"?>
<!-- Generator: Adobe Illustrator 28.4.1, SVG Export Plug-In . SVG Version: 6.00 Build 0)  -->
<svg version="1.1" id="Camada_1" xmlns="http://www.w3.org/2000/svg" xmlns:xlink="http://www.w3.org/1999/xlink" x="0px" y="0px"
	 viewBox="0 0 800 800" style="enable-background:new 0 0 800 800;" xml:space="preserve">
<style type="text/css">
	.st0{fill:none;}
	.st1{fill:#EBFBFF;}
</style>
<g>
	<path class="st0" d="M400,319.9c43.7,0,79.3-35.6,79.3-79.3c0-43.8-35.6-79.4-79.3-79.4s-79.3,35.6-79.3,79.4
		C320.7,284.3,356.3,319.9,400,319.9z"/>
	<path class="st1" d="M400,382.9c78.5,0,142.3-63.8,142.3-142.3c0-78.5-63.8-142.4-142.3-142.4c-78.5,0-142.3,63.9-142.3,142.4
		C257.7,319.1,321.5,382.9,400,382.9z M400,161.2c43.7,0,79.3,35.6,79.3,79.4c0,43.7-35.6,79.3-79.3,79.3s-79.3-35.6-79.3-79.3
		C320.7,196.8,356.3,161.2,400,161.2z"/>
	<path class="st1" d="M445.2,638.9H218.5c-0.1-0.6-0.1-1.3,0-2.1c0-0.1,0-0.1,0-0.2c11.3-111.3,79.2-177.7,181.5-177.7
		c61.7,0,110.8,24.2,142.6,67.7c13.7-16.4,34-27.2,56.8-28.4C589,482.6,577,468.4,563.3,456c-43.2-39.3-99.6-60.1-163.3-60.1
		c-63.7,0-120.1,20.8-163.3,60.1c-45.5,41.4-73.5,101.7-80.9,174.2h0c-2.1,19.9,3.9,39.3,16.5,53.3c10.7,11.9,24.8,18.4,40,18.4
		h249.2c-11-13.4-17.6-30.4-17.6-48.9C443.9,648.2,444.4,643.5,445.2,638.9z"/>
</g>
<path class="st1" d="M677.5,621.1h-41.3v-38.8c0-17.6-14.7-31.9-32.8-31.9s-32.8,14.3-32.8,31.9v38.8h-41.3
	c-18.1,0-32.8,14.3-32.8,31.9s14.7,31.9,32.8,31.9h41.3v38.8c0,17.6,14.7,31.9,32.8,31.9s32.8-14.3,32.8-31.9v-38.8h41.3
	c18.1,0,32.8-14.3,32.8-31.9S695.6,621.1,677.5,621.1z"/>
</svg>
