<?xml version="1.0" encoding="utf-8"?>
<!-- Generator: Adobe Illustrator 28.4.1, SVG Export Plug-In . SVG Version: 6.00 Build 0)  -->
<svg version="1.1" id="Camada_1" xmlns="http://www.w3.org/2000/svg" xmlns:xlink="http://www.w3.org/1999/xlink" x="0px" y="0px"
	 viewBox="0 0 800 800" style="enable-background:new 0 0 800 800;" xml:space="preserve">
<style type="text/css">
	.st0{fill:#EBFBFF;}
</style>
<g>
	<path class="st0" d="M372,187.7c-62.5,0-113.2,50.6-113.2,113.2c0,0.9,0,2,0,2.9c0.4,13.1-8.5,24.8-21.2,28.1
		c-45.4,11.9-72.4,58.3-60.6,103.7c9.7,37.2,43.3,63.3,81.8,63.4h28.3c15.6,0,28.3,12.6,28.3,28.3c0,15.6-12.6,28.3-28.3,28.3h-28.3
		c-78.1,0-141.4-63.4-141.4-141.4c0-56.5,33.7-107.7,85.8-130.1c9.4-93.3,92.5-161.4,185.7-152.1c54.5,5.3,102.9,36.7,130.2,84.1
		c93.5,3.2,166.7,81.9,163.4,175.6c-3.3,91.1-78,163.3-169,163.5c-15.6,0-28.3-12.6-28.3-28.3c0-15.8,12.6-28.3,28.3-28.3
		c62.5-0.1,113.1-50.8,113.1-113.2c-0.1-62.5-50.8-113.1-113.2-113.1c-3,0-6,0.1-9,0.4c-12.1,0.9-23.5-5.8-28.3-16.9
		C458,214.7,417.1,187.7,372,187.7z M380.3,337.5c11.1-10.9,29-10.9,40,0l56.5,56.5c10.9,11.2,10.5,29.1-0.8,40
		c-10.9,10.7-28.3,10.7-39.3,0l-8.3-8.3v214.6c0,15.6-12.6,28.3-28.3,28.3c-15.8,0-28.3-12.6-28.3-28.3V425.7l-8.3,8.3
		c-11.2,10.9-29.1,10.5-40-0.8c-10.7-10.9-10.7-28.3,0-39.3L380.3,337.5L380.3,337.5z"/>
</g>
</svg>
