<svg xmlns="http://www.w3.org/2000/svg" version="1.1" xmlns:xlink="http://www.w3.org/1999/xlink" xmlns:svgjs="http://svgjs.dev/svgjs" width="1000" height="1000"><g clip-path="url(#SvgjsClipPath1212)"><rect width="1000" height="1000" fill="#ffffff"></rect><g transform="matrix(26.470588235294116,0,0,26.470588235294116,50,50)"><svg xmlns="http://www.w3.org/2000/svg" version="1.1" xmlns:xlink="http://www.w3.org/1999/xlink" xmlns:svgjs="http://svgjs.dev/svgjs" width="34" height="34"><svg viewBox="0 0 34 34" xmlns="http://www.w3.org/2000/svg">
  <path class="st0" d="M 30.958 19.39 C 30.607 19.629 30.177 19.924 29.751 20.442 C 29.453 20.802 29.265 21.134 29.155 21.336 C 29.013 21.59 28.981 21.69 28.557 22.656 C 28.221 23.423 28.184 23.498 28.106 23.616 C 28.026 23.737 27.755 24.134 27.264 24.507 C 26.826 24.837 26.421 24.995 26.233 25.06 C 25.85 25.191 25.149 25.43 24.932 25.172 C 24.715 24.915 25.082 24.274 25.353 23.801 C 25.63 23.321 26.086 22.664 26.829 21.99 C 25.461 22.503 23.228 23.536 21.052 25.586 C 18.986 27.531 17.838 29.573 17.234 30.874 C 18.514 29.97 19.649 29.522 20.446 29.28 C 21.836 28.859 23.47 28.679 25.018 28.151 C 25.251 28.07 26.056 27.762 26.867 27.171 C 26.987 27.083 27.103 26.986 27.229 26.868 C 27.717 26.412 27.996 25.975 28.259 25.559 C 28.82 24.676 28.884 24.228 29.297 23.313 C 29.901 21.974 30.607 21.059 31.039 20.496 C 31.471 19.932 32.112 19.181 33 18.39 C 32.074 18.695 31.396 19.093 30.958 19.39 Z" style="fill: rgb(199, 45, 30);" transform="matrix(1, 0, 0, 1, 3.552713678800501e-15, 8.881784197001252e-16)"></path>
  <ellipse style="fill: none; stroke-width: 2px; stroke-dasharray: 42, 0, 17; stroke: rgb(199, 45, 30);" cx="17" cy="17" rx="12.542" ry="12.542" transform="matrix(0.99863, 0.052336, 0.052336, -0.99863, -0.866392, 33.087017)"></ellipse>
  <path d="M 17.715 18.183 L 14.165 23.251 L 13.2 22.575 L 16.761 17.491 L 16.761 8 L 17.939 8 L 17.939 17.605 C 17.943 17.861 17.884 17.943 17.884 17.943" style="fill-rule: nonzero; fill: rgb(199, 45, 30); stroke-linecap: square; stroke-miterlimit: 9.66; stroke: rgb(199, 45, 30); stroke-width: 0.4px;" transform="matrix(1, 0, 0, 1, 3.552713678800501e-15, 8.881784197001252e-16)"></path>
</svg></svg></g></g><defs><clipPath id="SvgjsClipPath1212"><rect width="1000" height="1000" x="0" y="0" rx="500" ry="500"></rect></clipPath></defs></svg>