<?xml version="1.0" encoding="utf-8"?>
<!-- Generator: Adobe Illustrator 28.4.1, SVG Export Plug-In . SVG Version: 6.00 Build 0)  -->
<svg version="1.1" id="Camada_1" xmlns="http://www.w3.org/2000/svg" xmlns:xlink="http://www.w3.org/1999/xlink" x="0px" y="0px"
	 viewBox="0 0 800 800" style="enable-background:new 0 0 800 800;" xml:space="preserve">
<style type="text/css">
	.st0{fill:url(#SVGID_1_);}
	.st1{fill:#EBFBFF;}
</style>
<linearGradient id="SVGID_1_" gradientUnits="userSpaceOnUse" x1="150.225" y1="373.7751" x2="717.2816" y2="-193.2816" gradientTransform="matrix(1 0 0 -1 0 524)">
	<stop  offset="0" style="stop-color:#365387"/>
	<stop  offset="0.6" style="stop-color:#294C73"/>
</linearGradient>
<path class="st0" d="M741.4,58.5C682.9-0.1,588.7-0.1,400-0.1s-282.9,0-341.4,58.6S0,211.4,0,399.9s0,282.9,58.6,341.6
	c58.6,58.6,152.9,58.6,341.4,58.6s282.9,0,341.4-58.7C800,682.8,800,588.5,800,399.9S800,117.1,741.4,58.5L741.4,58.5z"/>
<path class="st1" d="M377.6,221.9c-49.2,0-89.1,39.8-89.1,89.1c0,0.7,0,1.6,0,2.3c0.3,10.3-6.7,19.5-16.7,22.1
	c-35.7,9.3-57,45.9-47.7,81.6c7.7,29.3,34.1,49.8,64.4,49.9h22.3c12.2,0,22.3,10,22.3,22.3c0,12.2-10,22.3-22.3,22.3h-22.3
	c-61.5,0-111.3-49.8-111.3-111.3c0-44.5,26.5-84.8,67.4-102.3c7.4-73.4,72.8-127,146.2-119.6c42.9,4.2,81.1,29,102.4,66.2
	c73.7,2.7,131.3,64.6,128.6,138.4c-2.7,71.7-61.4,128.5-133,128.7c-12.2,0-22.3-10-22.3-22.3s10-22.3,22.3-22.3
	c49.2-0.1,89-39.9,88.9-89.1c-0.1-49.2-39.9-89-89.1-88.9c-2.4,0-4.8,0.1-7,0.3c-9.5,0.7-18.5-4.6-22.3-13.3
	C445.3,243,413.1,221.9,377.6,221.9z M399.9,355.5c12.2,0,22.3,10,22.3,22.3v168.9l6.5-6.5c8.8-8.6,22.9-8.3,31.5,0.6
	c8.3,8.6,8.3,22.3,0,30.9L415.6,616c-8.7,8.7-22.8,8.7-31.5,0l-44.5-44.5c-8.8-8.6-9-22.6-0.6-31.5c8.6-8.9,22.6-9,31.5-0.6
	c0.2,0.2,0.4,0.4,0.6,0.6l6.5,6.5V377.7C377.6,365.5,387.5,355.5,399.9,355.5L399.9,355.5z"/>
</svg>
