<?xml version="1.0" encoding="utf-8"?>
<!-- Generator: Adobe Illustrator 28.4.1, SVG Export Plug-In . SVG Version: 6.00 Build 0)  -->
<svg version="1.1" id="Camada_1" xmlns="http://www.w3.org/2000/svg" xmlns:xlink="http://www.w3.org/1999/xlink" x="0px" y="0px"
	 viewBox="0 0 800 800" style="enable-background:new 0 0 800 800;" xml:space="preserve">
<style type="text/css">
	.st0{fill:#DFF1F7;}
	.st1{opacity:0.83;fill:url(#SVGID_1_);enable-background:new    ;}
	.st2{fill:#EBFBFF;}
</style>
<path class="st0" d="M741.4,58.5C682.9-0.1,588.7-0.1,400-0.1s-282.9,0-341.4,58.6S0,211.4,0,399.9s0,282.9,58.6,341.6
	c58.6,58.6,152.9,58.6,341.4,58.6s282.9,0,341.4-58.7C800,682.8,800,588.5,800,399.9S800,117.1,741.4,58.5L741.4,58.5z"/>
<linearGradient id="SVGID_1_" gradientUnits="userSpaceOnUse" x1="150.725" y1="373.275" x2="717.7816" y2="-193.7816" gradientTransform="matrix(1 0 0 -1 0 524)">
	<stop  offset="0" style="stop-color:#365387"/>
	<stop  offset="0.6" style="stop-color:#294C73"/>
</linearGradient>
<path class="st1" d="M741.9,59C683.4,0.4,589.2,0.4,400.5,0.4S117.6,0.4,59.1,59S0.5,211.9,0.5,400.4s0,282.9,58.6,341.6
	c58.6,58.6,152.9,58.6,341.4,58.6s282.9,0,341.4-58.7c58.6-58.6,58.6-152.9,58.6-341.5S800.5,117.6,741.9,59L741.9,59z"/>
<path class="st2" d="M377.6,221.4c-49.2,0-89.1,39.8-89.1,89.1c0,0.7,0,1.6,0,2.3c0.3,10.3-6.7,19.5-16.7,22.1
	c-35.7,9.4-57,45.9-47.7,81.6c7.6,29.3,34.1,49.8,64.4,49.9h22.3c12.3,0,22.3,9.9,22.3,22.3c0,12.3-9.9,22.3-22.3,22.3h-22.3
	c-61.5,0-111.3-49.9-111.3-111.3c0-44.5,26.5-84.8,67.5-102.4c7.4-73.4,72.8-127,146.2-119.7c42.9,4.2,81,28.9,102.5,66.2
	C567,246.3,624.6,308.3,622,382c-2.6,71.7-61.4,128.5-133,128.7c-12.3,0-22.3-9.9-22.3-22.3s9.9-22.3,22.3-22.3
	c49.2-0.1,89-40,89-89.1c-0.1-49.2-40-89-89.1-89c-2.4,0-4.7,0.1-7.1,0.3c-9.5,0.7-18.5-4.6-22.3-13.3
	C445.3,242.6,413.1,221.4,377.6,221.4z M384.1,339.3c8.7-8.6,22.8-8.6,31.5,0l44.5,44.5c8.6,8.8,8.3,22.9-0.6,31.5
	c-8.6,8.4-22.3,8.4-30.9,0l-6.5-6.5v168.9c0,12.3-9.9,22.3-22.3,22.3s-22.3-9.9-22.3-22.3V408.7l-6.5,6.5
	c-8.8,8.6-22.9,8.3-31.5-0.6c-8.4-8.6-8.4-22.3,0-30.9L384.1,339.3L384.1,339.3z"/>
</svg>
