<?xml version="1.0" encoding="utf-8"?>
<svg version="1.1" id="Camada_1" xmlns="http://www.w3.org/2000/svg" xmlns:xlink="http://www.w3.org/1999/xlink" x="0px" y="0px"
	 viewBox="0 0 800 800" style="enable-background:new 0 0 800 800;" xml:space="preserve">
<style type="text/css">
	.st0{fill:#DFF1F7;}
	.st1{opacity:0.83;fill:url(#SVGID_1_);enable-background:new    ;}
</style>
<path class="st0" d="M741.4,58.5C682.9-0.1,588.7-0.1,400-0.1s-282.9,0-341.4,58.6S0,211.4,0,399.9s0,282.9,58.6,341.6
	c58.6,58.6,152.9,58.6,341.4,58.6s282.9,0,341.4-58.7C800,682.8,800,588.5,800,399.9S800,117.1,741.4,58.5L741.4,58.5z"/>
<linearGradient id="SVGID_1_" gradientUnits="userSpaceOnUse" x1="150.725" y1="706.725" x2="717.7817" y2="1273.7816" gradientTransform="matrix(1 0 0 1 0 -556)">
	<stop  offset="0" style="stop-color:#365387"/>
	<stop  offset="0.6" style="stop-color:#294C73"/>
</linearGradient>
<path class="st1" d="M741.9,59C683.4,0.4,589.2,0.4,400.5,0.4S117.6,0.4,59.1,59S0.5,211.9,0.5,400.4s0,282.9,58.6,341.6
	c58.6,58.6,152.9,58.6,341.4,58.6s282.9,0,341.4-58.7c58.6-58.6,58.6-152.9,58.6-341.5S800.5,117.6,741.9,59L741.9,59z"/>
</svg>
