<?xml version="1.0" encoding="utf-8"?>
<!-- Generator: Adobe Illustrator 28.4.1, SVG Export Plug-In . SVG Version: 6.00 Build 0)  -->
<svg version="1.1" id="Camada_1" xmlns="http://www.w3.org/2000/svg" xmlns:xlink="http://www.w3.org/1999/xlink" x="0px" y="0px"
	 viewBox="0 0 800 800" style="enable-background:new 0 0 800 800;" xml:space="preserve">
<style type="text/css">
	.st0{fill:url(#SVGID_1_);}
	.st1{fill-rule:evenodd;clip-rule:evenodd;fill:#EBFBFF;}
</style>
<linearGradient id="SVGID_1_" gradientUnits="userSpaceOnUse" x1="150.2575" y1="428.2575" x2="717.2291" y2="995.2291" gradientTransform="matrix(1 0 0 1 0 -278)">
	<stop  offset="0" style="stop-color:#365387"/>
	<stop  offset="0.6" style="stop-color:#294C73"/>
</linearGradient>
<path class="st0" d="M741.3,58.6C682.8,0,588.7,0,400,0S117.2,0,58.7,58.6S0.1,211.4,0.1,399.9s0,282.8,58.6,341.5
	C117.2,800,211.5,800,400,800s282.8,0,341.4-58.7c58.6-58.6,58.6-152.9,58.6-341.4S800,117.1,741.3,58.6L741.3,58.6z"/>
<path class="st1" d="M651.1,390.3c-0.2,0.1-0.4,0.1-0.7,0.2c-13.4,3.2-16.6,14-25.2,24.8c-4.2,5.2-9.1,10.2-13,14.3
	c-38.9,42.1-109.6,97.6-212.2,97.6s-173.3-55.5-212.2-97.6c-3.8-4.1-8.8-9.1-13-14.3c-8.6-10.8-11.8-21.7-25.2-24.8
	c-0.2-0.1-0.4-0.1-0.7-0.2c-12.9-3-24.9,7.7-23.3,20.8c2.3,19.1,10.5,37.6,24.7,53c43.9,47.6,127.2,114,249.6,114
	s205.6-66.4,249.6-114c14.2-15.4,22.4-33.9,24.7-53C675.9,398,663.9,387.3,651.1,390.3z"/>
</svg>
