<?xml version="1.0" encoding="utf-8"?>
<!-- Generator: Adobe Illustrator 28.4.1, SVG Export Plug-In . SVG Version: 6.00 Build 0)  -->
<svg version="1.1" id="Camada_1" xmlns="http://www.w3.org/2000/svg" xmlns:xlink="http://www.w3.org/1999/xlink" x="0px" y="0px"
	 viewBox="0 0 800 800" style="enable-background:new 0 0 800 800;" xml:space="preserve">
<style type="text/css">
	.st0{fill:url(#SVGID_1_);}
	.st1{fill-rule:evenodd;clip-rule:evenodd;fill:#EBFBFF;}
</style>
<linearGradient id="SVGID_1_" gradientUnits="userSpaceOnUse" x1="150.2025" y1="651.7375" x2="717.1741" y2="84.7659" gradientTransform="matrix(1 0 0 -1 0 802)">
	<stop  offset="0" style="stop-color:#365387"/>
	<stop  offset="0.6" style="stop-color:#294C73"/>
</linearGradient>
<path class="st0" d="M741.3,58.6C682.8,0,588.6,0,399.9,0S117.1,0,58.6,58.6S0,211.4,0,399.9s0,282.8,58.6,341.5
	C117.1,800,211.4,800,399.9,800s282.8,0,341.4-58.7c58.6-58.6,58.6-152.9,58.6-341.4S799.9,117.1,741.3,58.6L741.3,58.6z"/>
<path class="st1" d="M399.9,489c49.2,0,89-39.9,89-89s-39.9-89-89-89s-89,39.9-89,89S350.7,489,399.9,489z M399.9,438
	c-21,0-38-17-38-38c0-21,17-38,38-38c21,0,38,17,38,38C437.9,421,420.9,438,399.9,438z"/>
<path class="st1" d="M400,221.9c-122.4,0-205.6,66.4-249.6,114c-33.9,36.7-33.9,91.5,0,128.2c43.9,47.6,127.2,114,249.6,114
	c122.4,0,205.6-66.4,249.6-114c33.9-36.7,33.9-91.5,0-128.2C605.6,288.3,522.4,221.9,400,221.9z M187.8,370.4
	c38.9-42.1,109.6-97.6,212.2-97.6s173.3,55.5,212.2,97.6c15.9,17.2,15.9,42,0,59.2c-38.9,42.1-109.6,97.6-212.2,97.6
	s-173.3-55.5-212.2-97.6C171.9,412.4,171.9,387.6,187.8,370.4z"/>
</svg>
