<?xml version="1.0" encoding="utf-8"?>
<!-- Generator: Adobe Illustrator 28.4.1, SVG Export Plug-In . SVG Version: 6.00 Build 0)  -->
<svg version="1.1" id="Camada_1" xmlns="http://www.w3.org/2000/svg" xmlns:xlink="http://www.w3.org/1999/xlink" x="0px" y="0px"
	 viewBox="0 0 800 800" style="enable-background:new 0 0 800 800;" xml:space="preserve">
<style type="text/css">
	.st0{fill:url(#SVGID_1_);}
	.st1{fill:#EBFBFF;}
</style>
<linearGradient id="SVGID_1_" gradientUnits="userSpaceOnUse" x1="150.225" y1="706.2249" x2="717.2816" y2="1273.2816" gradientTransform="matrix(1 0 0 1 0 -556)">
	<stop  offset="0" style="stop-color:#365387"/>
	<stop  offset="0.6" style="stop-color:#294C73"/>
</linearGradient>
<path class="st0" d="M741.4,58.5C682.9-0.1,588.7-0.1,400-0.1s-282.9,0-341.4,58.6S0,211.4,0,399.9s0,282.9,58.6,341.6
	c58.6,58.6,152.9,58.6,341.4,58.6s282.9,0,341.4-58.7C800,682.8,800,588.5,800,399.9S800,117.1,741.4,58.5L741.4,58.5z"/>
<g>
	<g>
		
			<ellipse transform="matrix(0.9732 -0.2298 0.2298 0.9732 -56.2118 116.0767)" class="st1" cx="470.4" cy="299.4" rx="30.2" ry="30.2"/>
		<path class="st1" d="M540.7,188.9H259.3c-22.2,0-40.2,18-40.2,40.2v281.4c0,22.2,18,40.2,40.2,40.2H359v-40.2h-99.8v-70.8
			l80.4-64.3l37.4,29.9c6.6-4.5,14.6-7.2,23.2-7.2c22.8,0,41.3,18.5,41.3,41.3v10.6c4.7-0.3,9.2-2.3,12.8-5.8l26-26l60.3,60.3v31.9
			h-99.1v40.2h99.1c22.2,0,40.2-18,40.2-40.2V229.1C580.9,206.9,562.9,188.9,540.7,188.9z M540.7,421.8l-46.1-46.1
			c-7.9-7.8-20.6-7.8-28.4,0l-27.5,27.5L352.3,334c-7.3-5.9-17.8-5.9-25.1,0l-67.8,54.3V229.1h281.4V421.8z"/>
	</g>
	<path class="st1" d="M400.4,417.2c12.2,0,22.3,10,22.3,22.3v168.9l6.5-6.5c8.8-8.6,22.9-8.3,31.5,0.6c8.3,8.6,8.3,22.3,0,30.9
		l-44.6,44.3c-8.7,8.7-22.8,8.7-31.5,0l-44.5-44.5c-8.8-8.6-9-22.6-0.6-31.5c8.6-8.9,22.6-9,31.5-0.6c0.2,0.2,0.4,0.4,0.6,0.6
		l6.5,6.5V439.4C378.1,427.2,388,417.2,400.4,417.2L400.4,417.2z"/>
</g>
</svg>
