<?xml version="1.0" encoding="utf-8"?>
<!-- Generator: Adobe Illustrator 28.4.1, SVG Export Plug-In . SVG Version: 6.00 Build 0)  -->
<svg version="1.1" id="Camada_1" xmlns="http://www.w3.org/2000/svg" xmlns:xlink="http://www.w3.org/1999/xlink" x="0px" y="0px"
	 viewBox="0 0 800 800" style="enable-background:new 0 0 800 800;" xml:space="preserve">
<style type="text/css">
	.st0{fill:url(#SVGID_1_);}
	.st1{fill:none;stroke:#EBFBFF;stroke-width:48.2222;stroke-linecap:round;stroke-linejoin:round;stroke-miterlimit:133.3333;}
</style>
<linearGradient id="SVGID_1_" gradientUnits="userSpaceOnUse" x1="150.225" y1="95.7751" x2="717.2816" y2="-471.2816" gradientTransform="matrix(1 0 0 -1 0 246)">
	<stop  offset="0" style="stop-color:#365387"/>
	<stop  offset="0.6" style="stop-color:#294C73"/>
</linearGradient>
<path class="st0" d="M741.4,58.5C682.9-0.1,588.7-0.1,400-0.1s-282.9,0-341.4,58.6S0,211.4,0,399.9s0,282.9,58.6,341.6
	c58.6,58.6,152.9,58.6,341.4,58.6s282.9,0,341.4-58.7C800,682.8,800,588.5,800,399.9S800,117.1,741.4,58.5L741.4,58.5z"/>
<path class="st1" d="M296.1,508.5v60.3c0,26.6,21.6,48.2,48.2,48.2h168.8c26.6,0,48.2-21.6,48.2-48.2V231.2
	c0-26.6-21.6-48.2-48.2-48.2H344.3c-26.6,0-48.2,21.6-48.2,48.2v73.8 M392.6,400H151.4 M151.4,400l60.3-60.3 M151.4,400l60.3,60.3"
	/>
</svg>
