<?xml version="1.0" encoding="utf-8"?>
<!-- Generator: Adobe Illustrator 28.4.1, SVG Export Plug-In . SVG Version: 6.00 Build 0)  -->
<svg version="1.1" id="Camada_1" xmlns="http://www.w3.org/2000/svg" xmlns:xlink="http://www.w3.org/1999/xlink" x="0px" y="0px"
	 viewBox="0 0 800 800" style="enable-background:new 0 0 800 800;" xml:space="preserve">
<style type="text/css">
	.st0{fill:url(#SVGID_1_);}
	.st1{fill:none;stroke:#F7DFE5;stroke-width:48.2222;stroke-linecap:round;stroke-linejoin:round;stroke-miterlimit:133.3333;}
</style>
<linearGradient id="SVGID_1_" gradientUnits="userSpaceOnUse" x1="58.5749" y1="465.425" x2="741.3752" y2="-217.3752" gradientTransform="matrix(1 0 0 -1 0 524)">
	<stop  offset="0" style="stop-color:#C9203C"/>
	<stop  offset="0.5" style="stop-color:#B03333"/>
</linearGradient>
<path class="st0" d="M400,800c-188.5,0-282.9,0-341.4-58.6C0,682.9,0,588.7,0,400S0,117.1,58.6,58.6S211.5,0,400,0
	s282.9,0,341.4,58.6S800,211.5,800,400s0,282.9-58.6,341.4C682.9,800,588.7,800,400,800z"/>
<path class="st1" d="M296.1,508.5v60.3c0,26.6,21.6,48.2,48.2,48.2h168.8c26.6,0,48.2-21.6,48.2-48.2V231.2
	c0-26.6-21.6-48.2-48.2-48.2H344.3c-26.6,0-48.2,21.6-48.2,48.2V305 M392.6,400H151.4 M151.4,400l60.3-60.3 M151.4,400l60.3,60.3"/>
</svg>
