<?xml version="1.0" encoding="UTF-8"?>
<svg id="Camada_1" data-name="Camada 1" xmlns="http://www.w3.org/2000/svg" version="1.1" xmlns:xlink="http://www.w3.org/1999/xlink" viewBox="0 0 666.7 666.7">
  <defs>
    <style>
      .cls-1 {
        fill: #f4c1c9;
      }

      .cls-1, .cls-2 {
        stroke-width: 0px;
      }

      .cls-2 {
        fill: url(#Gradiente_sem_nome_362);
      }
    </style>
    <linearGradient id="Gradiente_sem_nome_362" data-name="Gradiente sem nome 362" x1="48.8" y1="48.8" x2="617.8" y2="617.8" gradientUnits="userSpaceOnUse">
      <stop offset="0" stop-color="#c9203c"/>
      <stop offset=".5" stop-color="#b03333"/>
    </linearGradient>
  </defs>
  <path class="cls-2" d="M333.3,666.7c-157.1,0-235.7,0-284.5-48.8C0,569,0,490.5,0,333.3S0,97.6,48.8,48.8,176.2,0,333.3,0,569,0,617.8,48.8s48.8,127.4,48.8,284.5,0,235.7-48.8,284.5c-48.8,48.9-127.3,48.9-284.5,48.9Z"/>
  <path class="cls-1" d="M433.3,358.3c13.8,0,25-11.2,25-25s-11.2-25-25-25h-200c-13.8,0-25,11.2-25,25s11.2,25,25,25h200Z"/>
</svg>