<?xml version="1.0" encoding="utf-8"?>
<!-- Generator: Adobe Illustrator 24.1.2, SVG Export Plug-In . SVG Version: 6.00 Build 0)  -->
<svg version="1.1" id="Camada_1" xmlns="http://www.w3.org/2000/svg" xmlns:xlink="http://www.w3.org/1999/xlink" x="0px" y="0px"
	 viewBox="0 0 666.7 666.7" style="enable-background:new 0 0 666.7 666.7;" xml:space="preserve">
<style type="text/css">
	.st0{fill:#DB2C3D;enable-background:new    ;}
	.st1{fill:#4F1218;}
</style>
<g>
	<path class="st0" d="M333.3,666.7c-157.1,0-235.7,0-284.5-48.8C0,569,0,490.5,0,333.3C0,176.2,0,97.6,48.8,48.8
		C97.6,0,176.2,0,333.3,0C490.5,0,569,0,617.8,48.8c48.8,48.8,48.8,127.4,48.8,284.5c0,157.1,0,235.7-48.8,284.5
		C569,666.7,490.5,666.7,333.3,666.7z"/>
	<path class="st1" d="M433.3,358.3c13.8,0,25-11.2,25-25c0-13.8-11.2-25-25-25h-200c-13.8,0-25,11.2-25,25c0,13.8,11.2,25,25,25
		H433.3z"/>
</g>
</svg>
