<?xml version="1.0" encoding="utf-8"?>
<svg viewBox="0 0 500 500" xmlns="http://www.w3.org/2000/svg">
  <path d="M 60 215 L 215 215 L 215 70.72 C 215 65.197 219.477 60.72 225 60.72 L 275 60.72 C 280.523 60.72 285 65.197 285 70.72 L 285 215 L 440 215 C 445.523 215 450 219.477 450 225 L 450 275 C 450 280.523 445.523 285 440 285 L 285 285 L 285 429.281 C 285 434.804 280.523 439.281 275 439.281 L 225 439.281 C 219.477 439.281 215 434.804 215 429.281 L 215 285 L 60 285 C 54.477 285 50 280.523 50 275 L 50 225 C 50 219.477 54.477 215 60 215 Z" style="stroke-linecap: round; stroke-miterlimit: 14.69; paint-order: fill; fill: rgb(237, 237, 237);"/>
</svg>