<?xml version="1.0" encoding="utf-8"?>
<!-- Generator: Adobe Illustrator 28.4.1, SVG Export Plug-In . SVG Version: 6.00 Build 0)  -->
<svg version="1.1" id="Camada_1" xmlns="http://www.w3.org/2000/svg" xmlns:xlink="http://www.w3.org/1999/xlink" x="0px" y="0px"
	 viewBox="0 0 800 800" style="enable-background:new 0 0 800 800;" xml:space="preserve">
<style type="text/css">
	.st0{fill:url(#SVGID_1_);}
	.st1{fill:#EBFBFF;}
</style>
<linearGradient id="SVGID_1_" gradientUnits="userSpaceOnUse" x1="150.225" y1="-182.2249" x2="717.2816" y2="-749.2816" gradientTransform="matrix(1 0 0 -1 0 -32)">
	<stop  offset="0" style="stop-color:#365387"/>
	<stop  offset="0.6" style="stop-color:#294C73"/>
</linearGradient>
<path class="st0" d="M741.4,58.5C682.9-0.1,588.7-0.1,400-0.1s-282.9,0-341.4,58.6S0,211.4,0,399.9s0,282.9,58.6,341.6
	c58.6,58.6,152.9,58.6,341.4,58.6s282.9,0,341.4-58.7C800,682.8,800,588.5,800,399.9S800,117.1,741.4,58.5L741.4,58.5z"/>
<path class="st1" d="M509.5,663.3c-51,0-92.5-41.5-92.5-92.5c0-6.8,0.7-13.5,2.2-20.1l1.5-6.9l-121.3-75.7l-5.5,4.4
	c-16.6,13.1-36.5,20.1-57.6,20.1c-51,0-92.5-41.5-92.5-92.5s41.5-92.5,92.5-92.5c21.1,0,41,6.9,57.6,20.1l5.5,4.4l121.3-75.7
	l-1.5-6.9c-1.4-6.6-2.2-13.3-2.2-20.1c0-51,41.5-92.5,92.5-92.5c51,0,92.5,41.4,92.5,92.3c0,51-41.5,92.5-92.5,92.5
	c-21.1,0-41-6.9-57.6-20l-5.5-4.3l-121.3,75.7l1.5,6.9c1.4,6.6,2.2,13.3,2.2,20.1s-0.7,13.5-2.2,20.1l-1.5,6.9l121.3,75.7l5.5-4.4
	c16.6-13.1,36.5-20.1,57.6-20.1c51,0,92.5,41.5,92.5,92.5S560.5,663.3,509.5,663.3z"/>
<path class="st1" d="M509.5,653.3c-45.5,0-82.5-37-82.5-82.5c0-6,0.7-12.1,1.9-17.9l3-13.8l-133.3-83.2l-11.1,8.8
	c-14.8,11.7-32.5,17.9-51.4,17.9c-45.5,0-82.5-37-82.5-82.5s37-82.5,82.5-82.5c18.8,0,36.6,6.2,51.4,17.9l11.1,8.8l133.3-83.2
	l-3-13.8c-1.3-5.9-1.9-11.9-1.9-17.9c0-45.5,37-82.5,82.5-82.5s82.5,36.9,82.5,82.3c0,45.5-37,82.5-82.5,82.5
	c-18.8,0-36.6-6.2-51.4-17.8l-11-8.7l-133.2,83.2l3,13.8c1.3,5.9,1.9,11.9,1.9,17.9c0,6-0.7,12.1-1.9,17.9l-3,13.8L447.1,515
	l11.1-8.8c14.8-11.7,32.5-17.9,51.4-17.9c45.5,0,82.5,37,82.5,82.5S555,653.3,509.5,653.3z"/>
</svg>
