<?xml version="1.0" encoding="utf-8"?>
<!-- Generator: Adobe Illustrator 24.1.2, SVG Export Plug-In . SVG Version: 6.00 Build 0)  -->
<svg version="1.1" id="Camada_1" xmlns="http://www.w3.org/2000/svg" xmlns:xlink="http://www.w3.org/1999/xlink" x="0px" y="0px"
	 viewBox="0 0 800 800" style="enable-background:new 0 0 800 800;" xml:space="preserve">
<style type="text/css">
	.st0{fill:#D8322E;}
	.st1{fill:#EDC0B7;enable-background:new    ;}
	.st2{fill:#EDC0B7;}
</style>
<path class="st0" d="M400,800.1c-188.5,0-282.9,0-341.4-58.6C0,682.8,0,588.6,0,399.9C0,211.4,0,117.1,58.6,58.5S211.5-0.1,400-0.1
	c188.7,0,282.9,0,341.4,58.6S800,211.4,800,399.9s0,282.9-58.6,341.4C682.9,800.1,588.7,800.1,400,800.1z"/>
<g>
	<path class="st1" d="M389.4,656.3h21.1c72.7,0,109.1,0,132.7-23.2c23.6-23.2,26.1-61.2,30.9-137.3l7-109.6
		c2.6-41.3,3.9-61.9-7.9-75c-11.9-13.1-31.9-13.1-72-13.1H298.7c-40.1,0-60.1,0-72,13.1c-11.9,13.1-10.5,33.7-7.9,75l7,109.6
		c4.8,76.1,7.3,114.1,30.9,137.3C280.3,656.3,316.7,656.3,389.4,656.3z"/>
	<path class="st2" d="M629.7,233.3H621h-31.5c-8.3-0.4-17-10.2-19.8-24.6c-0.1-0.4-0.2-0.8-0.5-2.5l-1.8-10
		c-1.1-6.1-2.1-11.5-3.4-16.2c-5.3-18.9-15.1-31.9-26.4-35.3c-2.9-0.8-5.9-0.8-9.4-0.8H271.7c-3.5,0-6.5,0-9.4,0.8
		c-11.3,3.4-21.1,16.4-26.4,35.3c-1.3,4.8-2.3,10.1-3.4,16.2l-1.8,10c-0.3,1.7-0.4,2.2-0.5,2.5c-2.8,14.4-10.1,24.2-18.4,24.6
		l-41.6,0c-6.7,0-12.1,10-12.1,22.4c0,12.4,5.4,22.4,12.1,22.4h8.7h193.6h54.8H621h8.7c6.7,0,12.1-10,12.1-22.4
		C641.8,243.3,636.4,233.3,629.7,233.3z"/>
</g>
</svg>
