<?xml version="1.0" encoding="utf-8"?>
<!-- Generator: Adobe Illustrator 28.4.1, SVG Export Plug-In . SVG Version: 6.00 Build 0)  -->
<svg version="1.1" id="Camada_1" xmlns="http://www.w3.org/2000/svg" xmlns:xlink="http://www.w3.org/1999/xlink" x="0px" y="0px"
	 viewBox="0 0 800 800" style="enable-background:new 0 0 800 800;" xml:space="preserve">
<style type="text/css">
	.st0{fill:url(#SVGID_1_);}
	.st1{fill:#F7DFE5;}
</style>
<linearGradient id="SVGID_1_" gradientUnits="userSpaceOnUse" x1="58.5749" y1="336.625" x2="741.3752" y2="1019.4252" gradientTransform="matrix(1 0 0 1 0 -278)">
	<stop  offset="0" style="stop-color:#C9203C"/>
	<stop  offset="0.5" style="stop-color:#B03333"/>
</linearGradient>
<path class="st0" d="M400,800.1c-188.5,0-282.9,0-341.4-58.6C0,682.9,0,588.7,0,400S0,117.1,58.6,58.6S211.5,0,400,0
	s282.9,0,341.4,58.6S800,211.5,800,400s0,282.9-58.6,341.4C682.9,800.1,588.7,800.1,400,800.1z"/>
<g>
	<path class="st1" d="M391.4,607.7h17.1c58.9,0,88.4,0,107.5-18.8c19.1-18.8,21.2-49.6,25-111.3l5.7-88.8
		c2.1-33.4,3.2-50.2-6.4-60.8s-25.8-10.6-58.3-10.6h-164c-32.5,0-48.7,0-58.3,10.6c-9.6,10.6-8.5,27.3-6.4,60.8l5.7,88.8
		c3.8,61.6,6,92.5,25,111.3C303,607.7,332.5,607.7,391.4,607.7z"/>
	<path class="st1" d="M586.2,264.9h-7.1c0,0-39.4-7.1-41.9-22c0,0-3.1-17.1-4.2-21.2c-4.3-15.3-12.3-25.8-21.4-28.6
		c-2.4-0.6-4.8-0.6-7.6-0.6H296c-2.8,0-5.3,0-7.6,0.6c-9.2,2.7-17.1,13.3-21.4,28.6c-2.2,7.8-4.2,21.2-4.2,21.2
		c-2.7,14.9-49,22-49,22c-5.4,0-9.8,8.1-9.8,18.1s4.4,18.1,9.8,18.1h7.1h156.9h44.4h157h7.1c5.4,0,9.8-8.1,9.8-18.1
		S591.6,264.9,586.2,264.9z"/>
</g>
</svg>
