<?xml version="1.0" encoding="utf-8"?>
<!-- Generator: Adobe Illustrator 28.4.1, SVG Export Plug-In . SVG Version: 6.00 Build 0)  -->
<svg version="1.1" id="Camada_1" xmlns="http://www.w3.org/2000/svg" xmlns:xlink="http://www.w3.org/1999/xlink" x="0px" y="0px"
	 viewBox="0 0 800 800" style="enable-background:new 0 0 800 800;" xml:space="preserve">
<style type="text/css">
	.st0{fill:url(#SVGID_1_);}
	.st1{fill:#F7DFE5;}
</style>
<linearGradient id="SVGID_1_" gradientUnits="userSpaceOnUse" x1="58.5358" y1="743.4041" x2="741.4042" y2="60.5358" gradientTransform="matrix(1 0 0 -1 0 802)">
	<stop  offset="0" style="stop-color:#C9203C"/>
	<stop  offset="0.5" style="stop-color:#B03333"/>
</linearGradient>
<path class="st0" d="M400,800.1c-188.5,0-282.9,0-341.4-58.6C0,682.9,0,588.7,0,400S0,117.1,58.6,58.6S211.5,0,400,0
	s282.9,0,341.4,58.6S800,211.5,800,400s0,282.9-58.6,341.4C682.9,800.1,588.7,800.1,400,800.1z"/>
<g>
	<path class="st1" d="M390.6,626.8h18.7c64.3,0,96.5,0,117.4-20.5c20.9-20.5,23.1-54.2,27.3-121.5l6.2-97c2.3-36.5,3.5-54.8-7-66.4
		c-10.5-11.6-28.2-11.6-63.7-11.6H310.4c-35.5,0-53.2,0-63.7,11.6c-10.5,11.6-9.3,29.8-7,66.4l6.2,97c4.2,67.3,6.5,101,27.3,121.5
		C294.1,626.8,326.3,626.8,390.6,626.8z"/>
	<path class="st1" d="M603.3,252.5h-7.7c0,0-43-7.8-45.8-24c0,0-3.4-18.7-4.6-23.2c-4.7-16.7-13.4-28.2-23.4-31.2
		c-2.6-0.7-5.2-0.7-8.3-0.7h-227c-3.1,0-5.8,0-8.3,0.7c-10,3-18.7,14.5-23.4,31.2c-2.4,8.5-4.6,23.2-4.6,23.2
		c-2.9,16.3-53.5,24-53.5,24c-5.9,0-10.7,8.8-10.7,19.8c0,11,4.8,19.8,10.7,19.8h7.7h171.3h48.5h171.4h7.7c5.9,0,10.7-8.8,10.7-19.8
		C614,261.3,609.2,252.5,603.3,252.5z"/>
</g>
</svg>
